<svg width="346" height="42" viewBox="0 0 346 42" fill="none" xmlns="http://www.w3.org/2000/svg">
<path d="M55.6077 34.306C53.2504 34.306 51.233 33.8073 49.5557 32.81C47.8784 31.8127 46.5864 30.396 45.6797 28.56C44.7957 26.724 44.3537 24.5367 44.3537 21.998C44.3537 20.094 44.603 18.394 45.1017 16.898C45.623 15.3793 46.3597 14.0987 47.3117 13.056C48.2864 11.9907 49.4764 11.1747 50.8817 10.608C52.287 10.0187 53.8624 9.724 55.6077 9.724C57.013 9.724 58.3504 9.928 59.6197 10.336C60.889 10.7213 61.9884 11.2993 62.9177 12.07C63.2124 12.2967 63.405 12.5573 63.4957 12.852C63.609 13.124 63.6204 13.396 63.5297 13.668C63.4617 13.9173 63.3257 14.1327 63.1217 14.314C62.9404 14.4727 62.7137 14.552 62.4417 14.552C62.1697 14.552 61.8637 14.4387 61.5237 14.212C60.7077 13.5547 59.8124 13.0673 58.8377 12.75C57.863 12.4327 56.809 12.274 55.6757 12.274C53.885 12.274 52.3664 12.6593 51.1197 13.43C49.873 14.178 48.9324 15.2773 48.2977 16.728C47.663 18.1787 47.3457 19.9353 47.3457 21.998C47.3457 24.0607 47.663 25.8287 48.2977 27.302C48.9324 28.7527 49.873 29.8633 51.1197 30.634C52.3664 31.382 53.885 31.756 55.6757 31.756C56.7864 31.756 57.8404 31.5973 58.8377 31.28C59.835 30.94 60.753 30.4413 61.5917 29.784C61.9317 29.5573 62.2377 29.4553 62.5097 29.478C62.7817 29.478 63.0084 29.5573 63.1897 29.716C63.371 29.8747 63.4957 30.0787 63.5637 30.328C63.6544 30.5773 63.6544 30.838 63.5637 31.11C63.4957 31.382 63.3257 31.62 63.0537 31.824C62.1017 32.64 60.9797 33.2633 59.6877 33.694C58.4184 34.102 57.0584 34.306 55.6077 34.306ZM72.7727 34.306C71.1407 34.306 69.894 33.8073 69.0327 32.81C68.1713 31.8127 67.7407 30.3847 67.7407 28.526V11.186C67.7407 10.7327 67.854 10.3927 68.0807 10.166C68.3073 9.91667 68.6473 9.792 69.1007 9.792C69.5313 9.792 69.8713 9.91667 70.1207 10.166C70.37 10.3927 70.4947 10.7327 70.4947 11.186V28.322C70.4947 29.546 70.7327 30.464 71.2087 31.076C71.7073 31.6653 72.4327 31.96 73.3847 31.96C73.5887 31.96 73.77 31.9487 73.9287 31.926C74.0873 31.9033 74.246 31.892 74.4047 31.892C74.654 31.8693 74.824 31.926 74.9147 32.062C75.028 32.198 75.0847 32.47 75.0847 32.878C75.0847 33.286 74.994 33.592 74.8127 33.796C74.6313 34 74.3367 34.136 73.9287 34.204C73.7473 34.2267 73.5547 34.2493 73.3507 34.272C73.1467 34.2947 72.954 34.306 72.7727 34.306ZM83.0032 34.306C81.8699 34.306 80.8499 34.0907 79.9432 33.66C79.0592 33.2067 78.3565 32.5947 77.8352 31.824C77.3139 31.0533 77.0532 30.192 77.0532 29.24C77.0532 28.016 77.3592 27.0527 77.9712 26.35C78.6059 25.6473 79.6372 25.1487 81.0652 24.854C82.5159 24.5593 84.4879 24.412 86.9812 24.412H88.5112V26.214H87.0152C85.1792 26.214 83.7285 26.3047 82.6632 26.486C81.6205 26.6447 80.8839 26.928 80.4532 27.336C80.0452 27.744 79.8412 28.322 79.8412 29.07C79.8412 29.9993 80.1585 30.7587 80.7932 31.348C81.4505 31.9373 82.3345 32.232 83.4452 32.232C84.3519 32.232 85.1452 32.0167 85.8252 31.586C86.5279 31.1553 87.0719 30.566 87.4572 29.818C87.8652 29.07 88.0692 28.2087 88.0692 27.234V23.358C88.0692 21.9527 87.7859 20.944 87.2192 20.332C86.6525 19.6973 85.7232 19.38 84.4312 19.38C83.6379 19.38 82.8445 19.482 82.0512 19.686C81.2579 19.89 80.4192 20.2187 79.5352 20.672C79.2179 20.8307 78.9459 20.8873 78.7192 20.842C78.4925 20.774 78.3112 20.6493 78.1752 20.468C78.0392 20.2867 77.9599 20.0827 77.9372 19.856C77.9145 19.6067 77.9599 19.3687 78.0732 19.142C78.2092 18.9153 78.4132 18.734 78.6852 18.598C79.6825 18.0993 80.6685 17.7367 81.6432 17.51C82.6179 17.2833 83.5472 17.17 84.4312 17.17C85.8592 17.17 87.0379 17.408 87.9672 17.884C88.8965 18.3373 89.5879 19.04 90.0412 19.992C90.4945 20.9213 90.7212 22.1227 90.7212 23.596V32.81C90.7212 33.2633 90.6079 33.6147 90.3812 33.864C90.1772 34.1133 89.8712 34.238 89.4632 34.238C89.0325 34.238 88.7039 34.1133 88.4772 33.864C88.2505 33.6147 88.1372 33.2633 88.1372 32.81V30.158H88.4432C88.2619 31.0193 87.9105 31.756 87.3892 32.368C86.8905 32.98 86.2672 33.456 85.5192 33.796C84.7712 34.136 83.9325 34.306 83.0032 34.306ZM101.407 34.306C100.387 34.306 99.3552 34.1813 98.3125 33.932C97.2925 33.6827 96.3405 33.252 95.4565 32.64C95.2298 32.4813 95.0712 32.3 94.9805 32.096C94.8898 31.8693 94.8558 31.654 94.8785 31.45C94.9238 31.2233 95.0145 31.0307 95.1505 30.872C95.3092 30.7133 95.4905 30.6227 95.6945 30.6C95.9212 30.5547 96.1705 30.6 96.4425 30.736C97.3265 31.28 98.1765 31.6653 98.9925 31.892C99.8312 32.096 100.659 32.198 101.475 32.198C102.767 32.198 103.741 31.96 104.399 31.484C105.056 31.008 105.385 30.362 105.385 29.546C105.385 28.9113 105.169 28.4127 104.739 28.05C104.308 27.6647 103.628 27.37 102.699 27.166L99.6045 26.486C98.1765 26.1913 97.1112 25.6813 96.4085 24.956C95.7285 24.2307 95.3885 23.29 95.3885 22.134C95.3885 21.114 95.6492 20.2413 96.1705 19.516C96.7145 18.768 97.4738 18.19 98.4485 17.782C99.4232 17.374 100.557 17.17 101.849 17.17C102.846 17.17 103.787 17.306 104.671 17.578C105.577 17.8273 106.393 18.2353 107.119 18.802C107.345 18.9607 107.493 19.1533 107.561 19.38C107.651 19.584 107.663 19.7993 107.595 20.026C107.549 20.23 107.447 20.4113 107.289 20.57C107.13 20.706 106.937 20.7853 106.711 20.808C106.484 20.8307 106.246 20.7627 105.997 20.604C105.317 20.1507 104.625 19.822 103.923 19.618C103.22 19.3913 102.529 19.278 101.849 19.278C100.579 19.278 99.6158 19.5273 98.9585 20.026C98.3012 20.5247 97.9725 21.182 97.9725 21.998C97.9725 22.6327 98.1765 23.154 98.5845 23.562C98.9925 23.97 99.6272 24.2647 100.489 24.446L103.583 25.092C105.056 25.4093 106.155 25.9193 106.881 26.622C107.629 27.302 108.003 28.2313 108.003 29.41C108.003 30.906 107.402 32.096 106.201 32.98C104.999 33.864 103.401 34.306 101.407 34.306ZM117.776 34.306C116.756 34.306 115.724 34.1813 114.682 33.932C113.662 33.6827 112.71 33.252 111.826 32.64C111.599 32.4813 111.44 32.3 111.35 32.096C111.259 31.8693 111.225 31.654 111.248 31.45C111.293 31.2233 111.384 31.0307 111.52 30.872C111.678 30.7133 111.86 30.6227 112.064 30.6C112.29 30.5547 112.54 30.6 112.812 30.736C113.696 31.28 114.546 31.6653 115.362 31.892C116.2 32.096 117.028 32.198 117.844 32.198C119.136 32.198 120.11 31.96 120.768 31.484C121.425 31.008 121.754 30.362 121.754 29.546C121.754 28.9113 121.538 28.4127 121.108 28.05C120.677 27.6647 119.997 27.37 119.068 27.166L115.974 26.486C114.546 26.1913 113.48 25.6813 112.778 24.956C112.098 24.2307 111.758 23.29 111.758 22.134C111.758 21.114 112.018 20.2413 112.54 19.516C113.084 18.768 113.843 18.19 114.818 17.782C115.792 17.374 116.926 17.17 118.218 17.17C119.215 17.17 120.156 17.306 121.04 17.578C121.946 17.8273 122.762 18.2353 123.488 18.802C123.714 18.9607 123.862 19.1533 123.93 19.38C124.02 19.584 124.032 19.7993 123.964 20.026C123.918 20.23 123.816 20.4113 123.658 20.57C123.499 20.706 123.306 20.7853 123.08 20.808C122.853 20.8307 122.615 20.7627 122.366 20.604C121.686 20.1507 120.994 19.822 120.292 19.618C119.589 19.3913 118.898 19.278 118.218 19.278C116.948 19.278 115.985 19.5273 115.328 20.026C114.67 20.5247 114.342 21.182 114.342 21.998C114.342 22.6327 114.546 23.154 114.954 23.562C115.362 23.97 115.996 24.2647 116.858 24.446L119.952 25.092C121.425 25.4093 122.524 25.9193 123.25 26.622C123.998 27.302 124.372 28.2313 124.372 29.41C124.372 30.906 123.771 32.096 122.57 32.98C121.368 33.864 119.77 34.306 117.776 34.306Z" fill="#1A224E"/>
<path d="M133.299 34.306C132.438 34.306 131.78 34.068 131.327 33.592C130.874 33.116 130.647 32.4473 130.647 31.586V12.716C130.647 11.832 130.874 11.1633 131.327 10.71C131.803 10.2567 132.472 10.03 133.333 10.03H141.595C144.27 10.03 146.332 10.71 147.783 12.07C149.234 13.4073 149.959 15.2773 149.959 17.68C149.959 20.0827 149.234 21.964 147.783 23.324C146.332 24.684 144.27 25.364 141.595 25.364H135.917V31.586C135.917 32.4473 135.69 33.116 135.237 33.592C134.806 34.068 134.16 34.306 133.299 34.306ZM135.917 21.284H140.711C142.071 21.284 143.102 20.978 143.805 20.366C144.53 19.754 144.893 18.8587 144.893 17.68C144.893 16.5013 144.53 15.6173 143.805 15.028C143.102 14.4387 142.071 14.144 140.711 14.144H135.917V21.284ZM155.103 34.306C154.242 34.306 153.584 34.0793 153.131 33.626C152.678 33.1727 152.451 32.5267 152.451 31.688V19.618C152.451 18.7793 152.666 18.1447 153.097 17.714C153.55 17.2607 154.174 17.034 154.967 17.034C155.783 17.034 156.406 17.2607 156.837 17.714C157.268 18.1447 157.483 18.7793 157.483 19.618V21.386H157.143C157.415 20.026 158.016 18.972 158.945 18.224C159.874 17.476 161.076 17.0567 162.549 16.966C163.116 16.9207 163.546 17.068 163.841 17.408C164.158 17.7253 164.328 18.258 164.351 19.006C164.396 19.7087 164.249 20.264 163.909 20.672C163.592 21.08 163.048 21.3293 162.277 21.42L161.495 21.488C160.203 21.6013 159.24 21.9753 158.605 22.61C157.993 23.2447 157.687 24.1627 157.687 25.364V31.688C157.687 32.5267 157.46 33.1727 157.007 33.626C156.576 34.0793 155.942 34.306 155.103 34.306ZM174.834 34.374C172.862 34.374 171.162 34.0227 169.734 33.32C168.328 32.5947 167.24 31.586 166.47 30.294C165.722 28.9793 165.348 27.438 165.348 25.67C165.348 23.9473 165.71 22.44 166.436 21.148C167.161 19.8333 168.17 18.8133 169.462 18.088C170.776 17.34 172.261 16.966 173.916 16.966C175.117 16.966 176.205 17.17 177.18 17.578C178.154 17.9633 178.993 18.53 179.696 19.278C180.398 20.0033 180.931 20.8987 181.294 21.964C181.656 23.0067 181.838 24.174 181.838 25.466C181.838 25.8967 181.702 26.2253 181.43 26.452C181.158 26.656 180.761 26.758 180.24 26.758H169.564V24.106H178.132L177.588 24.582C177.588 23.6527 177.452 22.882 177.18 22.27C176.908 21.6353 176.511 21.1593 175.99 20.842C175.491 20.5247 174.868 20.366 174.12 20.366C173.281 20.366 172.567 20.5587 171.978 20.944C171.388 21.3293 170.935 21.8847 170.618 22.61C170.3 23.3353 170.142 24.208 170.142 25.228V25.5C170.142 27.2227 170.538 28.492 171.332 29.308C172.148 30.124 173.349 30.532 174.936 30.532C175.48 30.532 176.103 30.464 176.806 30.328C177.508 30.192 178.166 29.9767 178.778 29.682C179.299 29.4327 179.764 29.3533 180.172 29.444C180.58 29.512 180.897 29.6933 181.124 29.988C181.35 30.2827 181.475 30.6227 181.498 31.008C181.543 31.3933 181.464 31.7787 181.26 32.164C181.056 32.5267 180.716 32.8327 180.24 33.082C179.469 33.5127 178.596 33.83 177.622 34.034C176.67 34.2607 175.74 34.374 174.834 34.374ZM191.216 34.374C190.219 34.374 189.187 34.2833 188.122 34.102C187.079 33.9207 186.127 33.6147 185.266 33.184C184.813 32.9573 184.484 32.674 184.28 32.334C184.099 31.9713 184.019 31.6087 184.042 31.246C184.065 30.8833 184.178 30.5547 184.382 30.26C184.609 29.9653 184.892 29.7727 185.232 29.682C185.595 29.5687 185.991 29.6027 186.422 29.784C187.351 30.1693 188.201 30.4413 188.972 30.6C189.743 30.7587 190.502 30.838 191.25 30.838C192.225 30.838 192.927 30.6907 193.358 30.396C193.811 30.0787 194.038 29.6707 194.038 29.172C194.038 28.7187 193.891 28.3787 193.596 28.152C193.301 27.9253 192.871 27.7667 192.304 27.676L188.734 27.03C187.329 26.7807 186.241 26.2707 185.47 25.5C184.722 24.7067 184.348 23.698 184.348 22.474C184.348 21.3407 184.665 20.366 185.3 19.55C185.935 18.7113 186.807 18.0767 187.918 17.646C189.051 17.1927 190.332 16.966 191.76 16.966C192.78 16.966 193.721 17.0567 194.582 17.238C195.443 17.4193 196.271 17.714 197.064 18.122C197.472 18.326 197.755 18.598 197.914 18.938C198.095 19.278 198.152 19.6293 198.084 19.992C198.039 20.3547 197.903 20.6833 197.676 20.978C197.449 21.2727 197.155 21.4653 196.792 21.556C196.452 21.6467 196.055 21.6013 195.602 21.42C194.877 21.08 194.208 20.842 193.596 20.706C192.984 20.5473 192.395 20.468 191.828 20.468C190.808 20.468 190.071 20.638 189.618 20.978C189.165 21.2953 188.938 21.7033 188.938 22.202C188.938 22.5873 189.063 22.916 189.312 23.188C189.584 23.4373 189.992 23.6073 190.536 23.698L194.106 24.344C195.579 24.5933 196.701 25.092 197.472 25.84C198.243 26.5653 198.628 27.5627 198.628 28.832C198.628 30.5547 197.948 31.9147 196.588 32.912C195.251 33.8867 193.46 34.374 191.216 34.374ZM210.228 34.374C208.256 34.374 206.556 34.0227 205.128 33.32C203.723 32.5947 202.635 31.586 201.864 30.294C201.116 28.9793 200.742 27.438 200.742 25.67C200.742 23.9473 201.105 22.44 201.83 21.148C202.556 19.8333 203.564 18.8133 204.856 18.088C206.171 17.34 207.656 16.966 209.31 16.966C210.512 16.966 211.6 17.17 212.574 17.578C213.549 17.9633 214.388 18.53 215.09 19.278C215.793 20.0033 216.326 20.8987 216.688 21.964C217.051 23.0067 217.232 24.174 217.232 25.466C217.232 25.8967 217.096 26.2253 216.824 26.452C216.552 26.656 216.156 26.758 215.634 26.758H204.958V24.106H213.526L212.982 24.582C212.982 23.6527 212.846 22.882 212.574 22.27C212.302 21.6353 211.906 21.1593 211.384 20.842C210.886 20.5247 210.262 20.366 209.514 20.366C208.676 20.366 207.962 20.5587 207.372 20.944C206.783 21.3293 206.33 21.8847 206.012 22.61C205.695 23.3353 205.536 24.208 205.536 25.228V25.5C205.536 27.2227 205.933 28.492 206.726 29.308C207.542 30.124 208.744 30.532 210.33 30.532C210.874 30.532 211.498 30.464 212.2 30.328C212.903 30.192 213.56 29.9767 214.172 29.682C214.694 29.4327 215.158 29.3533 215.566 29.444C215.974 29.512 216.292 29.6933 216.518 29.988C216.745 30.2827 216.87 30.6227 216.892 31.008C216.938 31.3933 216.858 31.7787 216.654 32.164C216.45 32.5267 216.11 32.8327 215.634 33.082C214.864 33.5127 213.991 33.83 213.016 34.034C212.064 34.2607 211.135 34.374 210.228 34.374ZM222.803 34.306C221.964 34.306 221.318 34.0793 220.865 33.626C220.434 33.1727 220.219 32.5267 220.219 31.688V19.618C220.219 18.7793 220.434 18.1447 220.865 17.714C221.318 17.2607 221.941 17.034 222.735 17.034C223.551 17.034 224.174 17.2607 224.605 17.714C225.035 18.1447 225.251 18.7793 225.251 19.618V21.556L224.877 20.434C225.398 19.3233 226.169 18.4733 227.189 17.884C228.231 17.272 229.41 16.966 230.725 16.966C232.062 16.966 233.161 17.2267 234.023 17.748C234.884 18.2467 235.53 19.0173 235.961 20.06C236.391 21.08 236.607 22.3833 236.607 23.97V31.688C236.607 32.5267 236.38 33.1727 235.927 33.626C235.496 34.0793 234.861 34.306 234.023 34.306C233.207 34.306 232.572 34.0793 232.119 33.626C231.688 33.1727 231.473 32.5267 231.473 31.688V24.208C231.473 23.052 231.257 22.2247 230.827 21.726C230.419 21.2047 229.784 20.944 228.923 20.944C227.835 20.944 226.962 21.284 226.305 21.964C225.67 22.644 225.353 23.5507 225.353 24.684V31.688C225.353 33.4333 224.503 34.306 222.803 34.306ZM248.565 34.374C246.752 34.374 245.165 34.0227 243.805 33.32C242.468 32.5947 241.437 31.5747 240.711 30.26C239.986 28.9453 239.623 27.3927 239.623 25.602C239.623 24.2647 239.827 23.0633 240.235 21.998C240.643 20.9327 241.233 20.026 242.003 19.278C242.797 18.53 243.749 17.9633 244.859 17.578C245.97 17.17 247.205 16.966 248.565 16.966C249.268 16.966 250.016 17.0567 250.809 17.238C251.603 17.3967 252.385 17.68 253.155 18.088C253.609 18.292 253.915 18.5867 254.073 18.972C254.255 19.3347 254.323 19.72 254.277 20.128C254.232 20.5133 254.085 20.8647 253.835 21.182C253.609 21.4767 253.314 21.6807 252.951 21.794C252.589 21.8847 252.181 21.8167 251.727 21.59C251.297 21.3407 250.843 21.1593 250.367 21.046C249.914 20.9327 249.483 20.876 249.075 20.876C248.395 20.876 247.795 20.9893 247.273 21.216C246.752 21.42 246.31 21.726 245.947 22.134C245.607 22.5193 245.335 23.0067 245.131 23.596C244.95 24.1853 244.859 24.8653 244.859 25.636C244.859 27.132 245.222 28.3107 245.947 29.172C246.695 30.0107 247.738 30.43 249.075 30.43C249.483 30.43 249.914 30.3847 250.367 30.294C250.821 30.1807 251.274 29.9993 251.727 29.75C252.181 29.5233 252.589 29.4667 252.951 29.58C253.314 29.6933 253.597 29.9087 253.801 30.226C254.028 30.5207 254.153 30.872 254.175 31.28C254.221 31.6653 254.153 32.0507 253.971 32.436C253.813 32.7987 253.518 33.082 253.087 33.286C252.317 33.6713 251.546 33.9433 250.775 34.102C250.005 34.2833 249.268 34.374 248.565 34.374ZM265.014 34.374C263.042 34.374 261.342 34.0227 259.914 33.32C258.508 32.5947 257.42 31.586 256.65 30.294C255.902 28.9793 255.528 27.438 255.528 25.67C255.528 23.9473 255.89 22.44 256.616 21.148C257.341 19.8333 258.35 18.8133 259.642 18.088C260.956 17.34 262.441 16.966 264.096 16.966C265.297 16.966 266.385 17.17 267.36 17.578C268.334 17.9633 269.173 18.53 269.876 19.278C270.578 20.0033 271.111 20.8987 271.474 21.964C271.836 23.0067 272.018 24.174 272.018 25.466C272.018 25.8967 271.882 26.2253 271.61 26.452C271.338 26.656 270.941 26.758 270.42 26.758H259.744V24.106H268.312L267.768 24.582C267.768 23.6527 267.632 22.882 267.36 22.27C267.088 21.6353 266.691 21.1593 266.17 20.842C265.671 20.5247 265.048 20.366 264.3 20.366C263.461 20.366 262.747 20.5587 262.158 20.944C261.568 21.3293 261.115 21.8847 260.798 22.61C260.48 23.3353 260.322 24.208 260.322 25.228V25.5C260.322 27.2227 260.718 28.492 261.512 29.308C262.328 30.124 263.529 30.532 265.116 30.532C265.66 30.532 266.283 30.464 266.986 30.328C267.688 30.192 268.346 29.9767 268.958 29.682C269.479 29.4327 269.944 29.3533 270.352 29.444C270.76 29.512 271.077 29.6933 271.304 29.988C271.53 30.2827 271.655 30.6227 271.678 31.008C271.723 31.3933 271.644 31.7787 271.44 32.164C271.236 32.5267 270.896 32.8327 270.42 33.082C269.649 33.5127 268.776 33.83 267.802 34.034C266.85 34.2607 265.92 34.374 265.014 34.374Z" fill="#8D3E64"/>
</svg>
